HIERARCHY
ROOT Hips
{
  OFFSET 13.6774 106.653 -34.4427
  CHANNELS 6 Xposition Yposition Zposition Zrotation Xrotation Yrotation
  JOINT ToSpine
  {
    OFFSET -2.69724 7.43032 -0.144315
    CHANNELS 3 Zrotation Xrotation Yrotation
    JOINT Spine
    {
      OFFSET -0.0310711 10.7595 1.96963
      CHANNELS 3 Zrotation Xrotation Yrotation
      JOINT Spine1
      {
        OFFSET 19.9056 3.91189 0.764692
        CHANNELS 3 Zrotation Xrotation Yrotation
        JOINT Neck
        {
          OFFSET 25.9749 7.03908 -0.130764
          CHANNELS 3 Zrotation Xrotation Yrotation
          JOINT Head
          {
            OFFSET 9.52751 0.295786 -0.907742
            CHANNELS 3 Zrotation Xrotation Yrotation
            End Site
            {
              OFFSET 16.4037 0.713936 2.7358
            }
          }
        }
        JOINT LeftShoulder
        {
          OFFSET 17.7449 4.33886 11.7777
          CHANNELS 3 Zrotation Xrotation Yrotation
          JOINT LeftArm
          {
            OFFSET 0.911315 1.27913 9.80584
            CHANNELS 3 Zrotation Xrotation Yrotation
            JOINT LeftForeArm
            {
              OFFSET 28.6126 1.18197 -3.53199
              CHANNELS 3 Zrotation Xrotation Yrotation
              JOINT LeftHand
              {
                OFFSET 27.5088 0.0218783 0.327423
                CHANNELS 3 Zrotation Xrotation Yrotation
                End Site
                {
                  OFFSET 18.6038 -0.000155887 0.382096
                }
              }
            }
          }
        }
        JOINT RightShoulder
        {
          OFFSET 17.1009 2.89543 -12.2328
          CHANNELS 3 Zrotation Xrotation Yrotation
          JOINT RightArm
          {
            OFFSET 1.4228 0.178766 -10.211
            CHANNELS 3 Zrotation Xrotation Yrotation
            JOINT RightForeArm
            {
              OFFSET 28.733 1.87905 2.64907
              CHANNELS 3 Zrotation Xrotation Yrotation
              JOINT RightHand
              {
                OFFSET 27.4588 0.290562 -0.101845
                CHANNELS 3 Zrotation Xrotation Yrotation
                End Site
                {
                  OFFSET 17.8396 -0.255518 -0.000602873
                }
              }
            }
          }
        }
      }
    }
  }
  JOINT LeftUpLeg
  {
    OFFSET -5.61296 -2.22332 -10.2353
    CHANNELS 3 Zrotation Xrotation Yrotation
    JOINT LeftLeg
    {
      OFFSET 2.56703 -44.7417 -7.93097
      CHANNELS 3 Zrotation Xrotation Yrotation
      JOINT LeftFoot
      {
        OFFSET 3.16933 -46.5642 -3.96578
        CHANNELS 3 Zrotation Xrotation Yrotation
        JOINT LeftToeBase
        {
          OFFSET 0.346054 -6.02161 12.8035
          CHANNELS 3 Zrotation Xrotation Yrotation
          End Site
          {
            OFFSET 0.134235 -1.35082 5.13018
          }
        }
      }
    }
  }
  JOINT RightUpLeg
  {
    OFFSET -5.7928 -1.72406 10.6446
    CHANNELS 3 Zrotation Xrotation Yrotation
    JOINT RightLeg
    {
      OFFSET -2.57161 -44.7178 -7.85259
      CHANNELS 3 Zrotation Xrotation Yrotation
      JOINT RightFoot
      {
        OFFSET -3.10148 -46.5936 -4.03391
        CHANNELS 3 Zrotation Xrotation Yrotation
        JOINT RightToeBase
        {
          OFFSET -0.0828122 -6.13587 12.8035
          CHANNELS 3 Zrotation Xrotation Yrotation
          End Site
          {
            OFFSET -0.131328 -1.35082 5.13018
          }
        }
      }
    }
  }
}
MOTION
Frames: 8
Frame Time: 0.03333333333333333
0.0000 93.1000 0.0000 -97.4244 -58.4632 -174.8977 -71.0723 -0.1220 88.2141 108.6578 68.0041 -17.1164 10.7877 18.9328 5.2489 -140.8087 21.6284 174.4435 -147.6374 56.7811 158.9479 2.1135 1.0998 -25.0175 -65.3560 48.6858 -93.1660 41.7900 -2.9849 -94.4654 12.9276 -1.0308 -3.1874 -0.2736 -2.6071 26.1104 -67.9326 -47.5310 86.0749 18.2353 -19.1630 42.4717 9.3618 -0.6034 -2.5683 -38.9207 -1.6705 76.9018 -100.3392 86.0470 94.3458 5.7609 4.4193 -0.9679 -10.1446 -41.8640 10.9553 -53.4375 10.1654 73.0346 7.1763 65.3570 3.9528 -8.4278 -7.1188 0.3421 11.0062 -20.6372 -20.0487 
0.0000 93.1000 0.0000 -95.1617 -58.0930 -174.6575 -71.0559 -0.3059 88.3574 105.6619 70.0024 -14.7952 8.9137 20.0735 3.6407 -139.7254 21.0354 170.6886 -146.6618 57.0640 154.7936 1.5897 0.2747 -24.7487 -63.6783 48.7134 -97.0972 40.7116 7.7773 -80.3173 5.5795 -0.0558 -2.9496 0.5254 -2.9941 25.5076 -71.0331 -48.8290 85.8998 17.4776 -16.2069 44.7906 9.2280 -1.6210 -1.9433 -36.6020 -3.7294 77.8323 -12.5428 75.3261 7.3949 4.8311 5.2705 -1.6668 -8.6009 -39.1696 11.8357 -61.3492 13.1386 77.0379 4.1428 58.3823 4.0371 -8.9058 -8.3972 0.8255 10.9907 -22.2392 -19.6730 
0.0000 93.1000 0.0000 -91.3420 -56.1662 -174.8325 -71.0093 0.4310 88.3671 97.7830 72.1694 -7.2975 8.5364 22.3469 -0.1067 -137.5136 20.6295 170.1134 -152.0650 57.7984 159.4491 2.1678 0.4323 -25.9619 -63.7517 46.7872 -97.1086 43.9868 18.4756 -70.3237 1.9997 -0.5803 -3.6240 0.8135 -3.0986 25.4549 -69.1543 -50.7518 88.4650 15.8904 -12.2513 49.9286 8.9088 -0.8943 -1.5656 -36.8977 -4.5867 80.8011 -4.3572 56.1377 1.7032 2.9044 6.8394 -1.1682 -7.5907 -32.3344 11.9189 -68.1993 14.9932 82.6235 3.1627 52.4886 2.2195 -8.0202 -7.6018 1.2604 11.3927 -19.2008 -20.4860 
0.0000 93.1000 0.0000 -88.2803 -54.2772 -174.0082 -71.0927 0.4455 88.4227 88.5569 74.1476 2.6719 8.7974 23.9274 -2.9784 -137.2195 20.4598 169.2230 -154.1949 57.5667 160.4667 2.0051 0.6070 -26.6262 -61.1238 43.8720 -96.3786 47.3440 26.3946 -67.4465 2.8062 -0.7564 -4.6001 0.5125 -3.0767 25.1092 -65.8998 -52.2385 91.9214 16.9293 -11.2156 56.4308 8.3845 -0.6319 -0.2198 -39.5819 -5.0233 85.2639 -2.7599 37.9899 -2.5712 0.0444 9.8999 -0.4318 -6.2841 -20.5572 13.6543 -72.7680 14.2215 84.8452 2.2588 48.6249 1.2569 -6.1982 -6.8158 1.2262 7.7315 -10.0025 -16.5901 
0.0000 93.1000 0.0000 -83.2917 -52.0434 -170.9515 -71.2893 0.4465 88.4990 74.6492 74.6689 15.8619 9.1644 24.3618 -3.6964 -136.7682 20.5687 170.2817 -153.6740 57.7782 160.6525 1.7027 0.2721 -25.7056 -56.9568 44.8429 -95.3107 50.3120 30.7909 -66.5130 3.4326 -0.9382 -6.2028 0.2329 -2.6401 24.1903 -63.9552 -53.2569 93.8542 21.0521 -10.0503 64.8669 7.2302 -0.3744 1.5937 -38.5031 -3.9581 90.8644 -1.1187 29.0012 -10.5189 -1.0268 9.0163 -0.5079 -4.7498 -10.6078 12.6239 -70.6578 9.9487 82.8134 1.5827 52.8646 1.3749 -5.9709 -5.7513 1.3339 3.4870 3.2337 -12.1735 
0.0000 93.1000 0.0000 -86.1987 -50.3206 -175.0881 -71.4463 0.9770 88.4130 77.7003 75.3782 11.8914 9.5586 24.8800 -3.9870 -137.9901 20.2344 172.5270 -153.5272 57.3136 160.6895 2.1993 -0.1883 -24.3068 -53.2473 46.5775 -96.0621 44.7158 29.7860 -61.1323 3.6745 -1.2703 -6.5247 0.3741 -2.3728 23.3019 -62.3228 -54.0532 95.5999 23.9592 -7.7775 72.8380 6.9389 0.1898 3.6614 -40.9556 -3.5617 94.2974 -2.8490 30.4027 -9.7287 -1.7237 9.8253 -0.3496 -5.1989 -7.8624 12.3565 -70.5240 7.4897 82.7450 4.4993 62.3654 -0.6848 -6.1394 -5.5974 1.4568 3.3744 10.5924 -16.2297 
0.0000 93.1000 0.0000 -89.5137 -48.8818 -177.5157 -71.6429 -0.0052 88.1729 89.7988 76.3421 -2.0563 9.3951 24.0922 -3.2047 -139.9826 20.0694 173.6493 -152.5841 56.0689 159.1418 1.6709 -1.3050 -22.6676 -49.8410 48.7410 -95.3417 37.9786 27.4437 -57.4679 4.7073 -1.5912 -6.0453 -0.8539 -1.5602 23.1418 -62.0709 -55.3934 96.1413 24.5925 -4.9632 80.1017 7.0850 0.5407 4.0631 -40.9813 -5.3162 92.0682 -3.4181 40.3268 -6.9315 -0.4131 9.6290 0.5220 -4.0406 -5.7892 8.1847 -69.1669 5.1211 82.7495 9.1565 74.3124 -10.8281 -6.4869 -4.5000 -0.1390 5.3318 1.6443 -19.3456 
0.0000 93.1000 0.0000 -94.3113 -48.2895 176.7686 -71.3493 0.3654 88.5486 99.6943 75.5523 -13.5714 10.2915 24.0042 -3.3721 -143.8240 19.0290 173.6502 -150.6650 54.5781 157.8044 2.3500 -1.7158 -22.8655 -47.1614 48.3628 -98.4383 33.7008 25.8468 -54.4476 3.9957 -1.6996 -4.8025 -0.8196 -1.7307 23.6607 -61.5792 -54.9204 97.7661 21.6751 -2.8804 84.7563 9.3909 1.3071 5.0169 -42.6275 -7.3133 93.8451 -4.0918 50.5800 -3.6127 5.3638 12.6748 0.2665 -5.4753 -19.3965 11.1090 -67.0058 2.9271 84.9688 37.9175 84.7872 -43.9992 -5.3296 -5.1286 -0.7651 6.5010 -1.6303 -21.4251 
